<?xml version="1.0" standalone="no"?>
<!DOCTYPE svg PUBLIC "-//W3C//DTD SVG 20010904//EN"
 "http://www.w3.org/TR/2001/REC-SVG-20010904/DTD/svg10.dtd">
<svg version="1.0" xmlns="http://www.w3.org/2000/svg"
 width="560.000000pt" height="560.000000pt" viewBox="0 0 560.000000 560.000000"
 preserveAspectRatio="xMidYMid meet">
<metadata>
Created by potrace 1.11, written by Peter Selinger 2001-2013
</metadata>
<g transform="translate(0.000000,560.000000) scale(0.100000,-0.100000)"
fill="#000000" stroke="none">
<path d="M2555 5349 c-485 -50 -944 -233 -1325 -527 -116 -90 -325 -296 -421
-415 -291 -361 -472 -777 -545 -1252 -25 -167 -26 -542 -1 -705 70 -452 231
-841 492 -1188 419 -558 1009 -900 1730 -1004 149 -21 542 -16 700 10 791 128
1459 592 1850 1281 150 266 259 597 307 936 17 120 17 513 0 635 -116 822
-586 1518 -1297 1918 -249 140 -580 251 -885 297 -126 19 -479 27 -605 14z
m273 -913 c74 -19 136 -37 140 -41 3 -3 -17 -101 -46 -218 -29 -117 -52 -217
-52 -223 0 -10 207 -61 215 -52 3 2 28 99 56 214 28 115 55 213 59 217 7 8
258 -49 272 -62 4 -3 -18 -107 -48 -230 -30 -123 -52 -226 -50 -229 3 -2 48
-22 101 -43 127 -51 221 -107 295 -176 118 -109 161 -201 162 -343 2 -239
-120 -426 -316 -485 l-39 -12 71 -47 c208 -138 271 -335 191 -601 -112 -374
-404 -513 -904 -431 -49 9 -93 12 -96 8 -3 -4 -30 -104 -59 -222 -29 -118 -56
-219 -61 -224 -6 -7 -263 48 -277 59 -1 1 22 102 53 223 30 122 55 225 55 230
0 11 -210 66 -218 58 -2 -3 -29 -106 -59 -228 -30 -123 -56 -224 -57 -225 -3
-3 -267 65 -273 71 -3 3 20 107 51 232 31 125 55 229 52 231 -3 3 -127 36
-276 73 -149 37 -274 70 -276 73 -9 9 128 317 140 317 6 0 54 -11 106 -25 127
-33 155 -32 188 4 24 24 47 108 185 662 87 349 157 649 157 668 0 48 -34 96
-83 119 -23 11 -87 30 -142 43 -55 13 -102 24 -104 26 -5 3 59 263 70 284 8
15 39 9 285 -53 177 -45 279 -66 283 -60 3 6 31 110 61 231 30 122 55 221 55
221 0 0 60 -16 133 -34z"/>
<path d="M2785 3598 c-11 -31 -135 -541 -133 -543 7 -7 210 -54 280 -65 159
-25 309 0 376 63 67 62 92 199 53 280 -51 105 -190 185 -418 243 -153 39 -152
38 -158 22z"/>
<path d="M2577 2763 c-12 -22 -150 -603 -145 -609 13 -13 274 -72 372 -84 187
-24 338 3 415 73 43 40 71 115 71 192 0 60 -5 78 -30 122 -68 118 -229 203
-516 273 -71 17 -136 33 -146 36 -9 3 -18 1 -21 -3z"/>
</g>
</svg>
